<svg width="20" height="20" viewBox="0 0 20 20" fill="none" xmlns="http://www.w3.org/2000/svg">
<g clip-path="url(#clip0_2573_11582)">
<path d="M9.73996 7.7545C9.73796 7.7435 9.71996 7.7335 9.70996 7.7525L9.72595 7.78549L9.73996 7.7545Z" fill="#010101"/>
<path d="M9.60197 7.82448C9.59797 7.85348 9.60197 7.89448 9.63597 7.90048C9.62697 7.86148 9.64095 7.86548 9.62895 7.82048C9.63995 7.80148 9.66095 7.79848 9.66795 7.80948C9.66595 7.79848 9.69496 7.78848 9.68596 7.76648C9.64896 7.77148 9.62597 7.79748 9.61897 7.83948C9.60697 7.84148 9.60497 7.83048 9.60197 7.82448Z" fill="#010101"/>
<path d="M8.29395 9.43844L8.30496 9.42944C8.30496 9.42944 8.29695 9.43444 8.29395 9.43844Z" fill="#010101"/>
<path d="M7.60589 10.5315C7.60989 10.5225 7.60687 10.5155 7.60687 10.5155C7.60387 10.5245 7.60589 10.5315 7.60589 10.5315Z" fill="#010101"/>
<path d="M7.4729 10.7125C7.4769 10.7075 7.4809 10.7015 7.4809 10.7015C7.4759 10.7055 7.4729 10.7125 7.4729 10.7125Z" fill="#010101"/>
<path d="M8.29391 9.43848L8.26593 9.46148C8.27293 9.46948 8.28191 9.45048 8.29391 9.43848Z" fill="#010101"/>
<path d="M9.48187 8.09654L9.48688 8.07654C9.48388 8.08254 9.47888 8.09254 9.47888 8.09254L9.48187 8.09654Z" fill="#010101"/>
<path d="M8.60291 8.9605L8.60892 8.9525C8.60892 8.9525 8.60491 8.9435 8.60291 8.9375V8.9605Z" fill="#010101"/>
<path d="M8.86193 8.6095C8.85493 8.6165 8.87493 8.6365 8.88293 8.6465C8.87693 8.6355 8.87695 8.6255 8.88095 8.6175C8.87695 8.6145 8.87093 8.6115 8.86193 8.6095Z" fill="#010101"/>
<path d="M9.33191 8.09953L9.33691 8.08752C9.33691 8.08752 9.33391 8.09453 9.33191 8.09953Z" fill="#010101"/>
<path d="M7.26794 11.0665L7.26895 11.0655C7.26995 11.0545 7.26794 11.0595 7.26794 11.0665Z" fill="#010101"/>
<path d="M6.51892 14.6985C6.54992 14.6605 6.54091 14.7695 6.57791 14.7115C6.56591 14.7155 6.54292 14.6495 6.51892 14.6985Z" fill="#010101"/>
<path d="M9.47195 8.10254L9.46094 8.11654C9.46594 8.11054 9.47195 8.10254 9.47195 8.10254Z" fill="#010101"/>
<path d="M6.57788 14.7114L6.58188 14.7054L6.57788 14.7114Z" fill="#010101"/>
<path d="M6.96289 11.9575L6.97787 11.9515C6.97787 11.9515 6.97089 11.9525 6.96289 11.9575Z" fill="#010101"/>
<path d="M7.22891 11.3105L7.21893 11.3245C7.22493 11.3155 7.22891 11.3105 7.22891 11.3105Z" fill="#010101"/>
<path d="M6.90992 12.3195C6.90592 12.3285 6.90092 12.3305 6.90192 12.3435L6.90592 12.3405C6.90392 12.3355 6.90292 12.3285 6.90992 12.3195Z" fill="#010101"/>
<path d="M6.83289 12.6876L6.8389 12.6816L6.83987 12.6696L6.83289 12.6876Z" fill="#010101"/>
<path d="M4.43088 19.3265C4.41988 19.3265 4.40988 19.3225 4.40088 19.3195C4.41888 19.3305 4.38188 19.3725 4.43088 19.3265Z" fill="#010101"/>
<path d="M9.46893 8.08655C9.47293 8.09255 9.47392 8.09755 9.47092 8.10255L9.47791 8.09155L9.46893 8.08655Z" fill="#010101"/>
<path d="M7.12296 12.3845L7.10596 12.4405C7.11296 12.4155 7.11796 12.4005 7.12296 12.3845Z" fill="#010101"/>
<path d="M6.05292 17.1665L6.04993 17.1805C6.05293 17.1765 6.05292 17.1665 6.05292 17.1665Z" fill="#010101"/>
<path d="M7.07394 12.6105C7.06194 12.6185 7.05395 12.6285 7.04895 12.6385L7.05496 12.6465L7.07394 12.6105Z" fill="#010101"/>
<path d="M4.14094 19.6265C4.18694 19.5915 4.13894 19.5815 4.13594 19.5575C4.18294 19.5065 4.17793 19.5585 4.20793 19.5585C4.23493 19.5235 4.23993 19.4785 4.26393 19.4575C4.26993 19.4605 4.27594 19.4585 4.27494 19.4685C4.28994 19.4165 4.37493 19.3785 4.38893 19.3155C4.39393 19.3155 4.39994 19.3175 4.39994 19.3175C4.38094 19.3095 4.36794 19.2965 4.35994 19.2855C4.37894 19.2685 4.37994 19.2365 4.40294 19.2485C4.39094 19.2585 4.39592 19.2665 4.39592 19.2765L4.40892 19.2505C4.44992 19.2605 4.38993 19.2835 4.40693 19.3025C4.43793 19.2585 4.46592 19.1995 4.49992 19.1775C4.52992 19.1975 4.43992 19.2495 4.49992 19.2355L4.44493 19.2675C4.51693 19.2755 4.41394 19.2895 4.48594 19.3035C4.55494 19.2565 4.54191 19.2285 4.60691 19.1785C4.60691 19.1525 4.58293 19.1625 4.58293 19.1365C4.64193 19.0315 4.70792 19.1335 4.73692 19.0415C4.73592 19.0095 4.71294 18.9755 4.76994 18.9465L4.78392 18.9885C4.84092 18.9325 4.77493 18.9175 4.84993 18.8745C4.85093 18.8955 4.81693 18.9295 4.82893 18.9235C4.88793 18.9045 4.83892 18.8805 4.86692 18.8505L4.89793 18.8675C4.95093 18.8015 4.99692 18.7185 5.05092 18.6415C5.05492 18.6515 5.05293 18.6715 5.07493 18.6615C5.13693 18.5595 5.24193 18.4735 5.32393 18.3925L5.32692 18.3395C5.33292 18.3315 5.34894 18.3325 5.34694 18.3445C5.38294 18.3155 5.33393 18.3315 5.33693 18.3075C5.34993 18.2865 5.37093 18.2905 5.36793 18.3085C5.39693 18.2315 5.45694 18.0985 5.52794 18.0475L5.52592 18.0655C5.57192 18.0185 5.51692 17.9725 5.57292 17.9385L5.57093 17.9505C5.66193 17.8445 5.71293 17.6955 5.80793 17.6285C5.78293 17.5905 5.89292 17.5185 5.84492 17.4815C5.90792 17.4255 5.90694 17.4515 5.97694 17.3615C5.99394 17.3365 5.96594 17.3055 5.97694 17.2695L6.00493 17.2825L5.99894 17.2235L6.04292 17.2155L6.05092 17.1805C6.04292 17.1925 6.02593 17.2005 6.01893 17.1955C6.02993 17.1405 6.09494 17.0855 6.10994 17.0915L6.14094 16.9645C6.15094 16.9725 6.14592 16.9935 6.14592 17.0115C6.14692 16.9365 6.18092 17.0135 6.18092 16.9445C6.17092 16.9495 6.16593 16.9325 6.16093 16.9295C6.18993 16.9085 6.21793 16.8425 6.22993 16.7905L6.24592 16.8075C6.28692 16.7205 6.31593 16.6185 6.34993 16.5165C6.32793 16.5495 6.29593 16.5285 6.30293 16.4975L6.33793 16.4965C6.32593 16.4705 6.31592 16.5235 6.30592 16.4755C6.32292 16.4395 6.34994 16.4625 6.35194 16.4885L6.35792 16.4385C6.36792 16.4395 6.36893 16.4515 6.37993 16.4585C6.36793 16.4335 6.43893 16.3895 6.41493 16.3515H6.42494C6.46294 16.2505 6.46094 16.1995 6.48494 16.1155C6.45894 16.1055 6.47394 16.0745 6.45994 16.0435C6.48694 15.9845 6.52893 15.9225 6.54393 15.8465C6.54293 15.7905 6.52493 15.8255 6.51393 15.7975C6.53993 15.7995 6.55592 15.7245 6.56392 15.7675C6.58292 15.6765 6.58592 15.6515 6.58992 15.5335C6.57692 15.5435 6.56994 15.5565 6.56294 15.5475C6.56294 15.5265 6.58392 15.5025 6.59492 15.5085L6.59593 15.5145C6.58493 15.3805 6.72793 15.2325 6.69093 15.1205L6.69294 15.1265L6.68293 15.0155C6.69493 14.9675 6.69694 15.0475 6.71895 15.0145C6.69495 14.8935 6.75193 14.8345 6.73793 14.7355C6.82293 14.6725 6.76792 14.4755 6.82792 14.3835L6.80992 14.3865C6.79592 14.3585 6.82394 14.3575 6.82994 14.3385C6.81594 14.3395 6.81093 14.3645 6.80293 14.3475C6.80893 14.1295 6.88292 13.9065 6.92592 13.6885C6.94092 13.6085 6.83992 13.6315 6.89592 13.5355L6.92494 13.5685C6.90694 13.4015 6.96993 13.2385 6.96193 13.0765C6.96793 13.0875 6.97793 13.0885 6.97493 13.1045C7.00393 13.0755 6.99493 12.9825 6.97593 12.9785C6.98193 12.9545 6.99394 12.9755 7.00694 12.9625C7.02694 12.9315 6.99093 12.8745 7.01793 12.8605C7.01793 12.8605 7.02394 12.8715 7.02494 12.8775C7.01694 12.8545 7.04493 12.7775 7.01393 12.7935C7.03693 12.7375 7.02393 12.6795 7.04893 12.6355C7.02493 12.5995 7.08294 12.5385 7.04194 12.5205C7.08494 12.5335 7.10093 12.4265 7.08793 12.3855C7.09793 12.4005 7.10894 12.3565 7.12394 12.3755C7.13294 12.3335 7.13293 12.2935 7.10893 12.2955C7.18093 12.2325 7.10692 12.1315 7.18492 12.1065C7.19492 11.9775 7.21694 11.8615 7.23994 11.7485C7.28194 11.7665 7.20694 11.8705 7.25294 11.8805C7.26594 11.7715 7.24992 11.6995 7.29792 11.6025C7.31292 11.5785 7.31092 11.6235 7.31492 11.6355C7.33392 11.5265 7.38892 11.4395 7.40492 11.3425C7.40492 11.3425 7.40894 11.3555 7.40794 11.3665C7.41394 11.3485 7.43093 11.3285 7.41093 11.3225L7.40892 11.3415C7.36992 11.3585 7.37992 11.2475 7.36692 11.2385C7.40892 11.2915 7.41692 11.1555 7.46592 11.2315C7.46692 11.2185 7.46394 11.2005 7.45094 11.1975C7.46194 11.1815 7.47092 11.1795 7.47892 11.2035C7.49492 11.1365 7.46592 11.1505 7.49192 11.0935C7.50092 11.0975 7.49894 11.1105 7.50694 11.1215C7.50194 11.0855 7.49793 11.0485 7.52693 11.0045C7.53093 11.0095 7.54092 11.0075 7.53392 11.0215C7.56892 10.9385 7.54993 10.8595 7.61293 10.7795C7.63793 10.8245 7.64092 10.7555 7.67692 10.7675L7.69093 10.7155L7.66493 10.7265C7.68693 10.6855 7.68094 10.6365 7.70994 10.6055L7.70793 10.6435L7.74192 10.5625L7.70594 10.5995C7.71094 10.5485 7.66194 10.5815 7.70094 10.5315C7.69794 10.5445 7.72393 10.4905 7.75493 10.4795C7.75593 10.4535 7.75593 10.4265 7.78093 10.4005C7.79593 10.3985 7.81392 10.4265 7.82292 10.4255C7.80692 10.3905 7.86692 10.3255 7.85392 10.2845C7.85592 10.2965 7.87294 10.3065 7.87794 10.3065L7.86592 10.2775C7.88392 10.2625 7.88892 10.2625 7.90092 10.2735C7.93792 10.2195 7.84893 10.2675 7.90593 10.2115C7.90493 10.2175 7.90893 10.2175 7.90593 10.2305C7.95493 10.1695 7.96894 10.0935 8.01494 10.0385C8.05794 10.0405 7.99093 10.0965 8.03093 10.0925C8.07793 10.0015 8.10594 9.88854 8.16594 9.80854L8.15294 9.82254C8.11594 9.78154 8.21394 9.77354 8.22194 9.71854C8.21794 9.73054 8.23794 9.74853 8.23494 9.74253C8.27994 9.69053 8.30092 9.61954 8.34492 9.52454L8.34892 9.54253C8.38092 9.51553 8.41493 9.45954 8.44493 9.42754C8.44093 9.40954 8.45693 9.39054 8.43193 9.39154C8.57093 9.32654 8.54593 9.15854 8.66893 9.10054C8.66093 9.11254 8.65893 9.13453 8.66493 9.12553L8.71492 9.03654C8.69192 9.02954 8.69593 9.03854 8.66893 9.04554C8.66593 9.02754 8.67392 8.99754 8.68892 8.97754C8.67392 9.02354 8.71892 8.99954 8.74092 8.99154C8.73292 8.98954 8.73092 8.97954 8.72392 8.97654C8.78892 8.95854 8.69192 8.94154 8.75792 8.90054L8.76494 8.91053C8.77594 8.88553 8.77893 8.85554 8.79893 8.83454C8.82793 8.84154 8.79193 8.86454 8.80793 8.87954C8.83093 8.84554 8.81694 8.78453 8.85994 8.77053C8.84794 8.79753 8.84692 8.80053 8.83592 8.82753C8.88492 8.81453 8.88194 8.80553 8.90394 8.78453L8.90193 8.78654L8.95494 8.74054L8.93693 8.74953C8.91293 8.66653 8.99094 8.65953 8.99794 8.57653C8.99094 8.65653 9.01093 8.60054 9.03193 8.62354C9.04893 8.61454 9.07293 8.59953 9.07493 8.61053C9.07593 8.56953 9.12394 8.57953 9.12394 8.52153C9.13294 8.52553 9.14593 8.49454 9.16093 8.51554C9.18193 8.47754 9.14092 8.51254 9.13392 8.50254C9.14892 8.43054 9.26192 8.40753 9.28492 8.30553C9.32092 8.23053 9.30492 8.19754 9.33992 8.12954C9.36792 8.11954 9.35392 8.16753 9.35392 8.16753C9.39092 8.14453 9.40893 8.11953 9.42393 8.08253C9.42593 8.09353 9.43592 8.09253 9.45192 8.09053C9.46992 8.06453 9.43793 8.05154 9.47493 8.02954C9.47893 8.04154 9.48694 8.05954 9.48594 8.07854C9.49694 8.05054 9.51694 7.99754 9.52794 7.97054C9.54694 7.97354 9.53294 8.00453 9.53294 8.02153C9.55394 7.98353 9.59193 7.92654 9.57893 7.89954L9.55394 7.91454C9.56294 7.90154 9.57692 7.92354 9.57292 7.93554C9.56592 7.97754 9.53193 7.97053 9.52293 7.96553L9.53492 7.94054C9.47292 7.92554 9.47293 8.03053 9.43593 8.07053L9.41792 8.02654L9.40892 8.09154C9.39292 8.09354 9.36994 8.08554 9.38194 8.06054C9.34094 8.07754 9.37193 8.09654 9.33293 8.10854C9.32793 8.10954 9.32792 8.10254 9.32792 8.10254L9.31294 8.13953C9.31094 8.12853 9.28592 8.12553 9.30592 8.11153C9.24392 8.14953 9.25992 8.21654 9.21992 8.21654L9.22194 8.21054C9.17394 8.29354 9.23992 8.23654 9.22392 8.31454L9.13493 8.30453L9.15294 8.33054C9.14594 8.33754 9.13192 8.35153 9.12492 8.34053C9.11892 8.38253 9.13894 8.34454 9.14094 8.37254C9.08994 8.39154 9.06992 8.48154 9.02592 8.46054C9.03392 8.48854 9.06793 8.43653 9.04893 8.48553C8.99893 8.46453 9.01993 8.53653 8.97493 8.55553C8.96193 8.52853 8.99792 8.50554 8.95292 8.52454C8.97292 8.57354 8.89294 8.58453 8.87794 8.61853C8.90594 8.64253 8.84092 8.68954 8.81392 8.74654C8.80692 8.73654 8.72894 8.82554 8.68394 8.86354L8.67994 8.85854C8.70294 8.88954 8.66093 8.93154 8.64293 8.97054C8.62593 8.95654 8.62393 8.94454 8.62993 8.92054L8.60594 8.95354C8.60994 8.96854 8.60692 8.98154 8.59492 9.00554L8.57893 8.98154C8.54893 9.02554 8.54094 9.08753 8.48594 9.13253C8.50394 9.15053 8.57592 9.13054 8.54692 9.19854C8.53392 9.19254 8.51294 9.18054 8.51994 9.16254C8.51794 9.16854 8.51592 9.18753 8.50392 9.19353L8.50193 9.15654C8.47493 9.17554 8.50792 9.18154 8.49192 9.19954C8.47592 9.18754 8.46994 9.20653 8.45894 9.19453C8.46094 9.18853 8.47792 9.18154 8.47792 9.16954C8.45792 9.19054 8.42893 9.21154 8.41093 9.21154C8.42093 9.21654 8.43292 9.22654 8.42292 9.24554C8.39292 9.28954 8.39292 9.24654 8.36692 9.26654C8.37092 9.28554 8.33993 9.30454 8.36293 9.32254C8.35393 9.33554 8.34094 9.32954 8.33094 9.33054C8.32594 9.36054 8.25994 9.43853 8.30394 9.43053L8.30992 9.42554L8.30894 9.42953C8.28194 9.52053 8.18992 9.57653 8.15092 9.65854L8.14293 9.65253C8.12193 9.70353 8.08294 9.75654 8.08094 9.80054C8.07194 9.81354 8.04592 9.82254 8.03892 9.81054C8.02292 9.84954 8.02994 9.85854 7.98494 9.90054C7.99194 9.85654 7.96393 9.90454 7.99693 9.85854C7.96093 9.89954 7.94094 9.90154 7.93394 9.96354C7.92294 9.93354 7.88492 9.98053 7.87892 10.0075L7.91392 9.98454C7.90292 10.0115 7.88794 10.0315 7.87294 10.0525L7.85093 10.0235C7.76093 10.0975 7.80894 10.2275 7.70994 10.2665C7.71594 10.3035 7.75293 10.2225 7.76393 10.2585C7.73593 10.3005 7.66893 10.3235 7.66093 10.3365C7.61093 10.3885 7.67293 10.4165 7.62693 10.4735C7.64193 10.4715 7.67394 10.4785 7.65794 10.5305C7.62994 10.5725 7.58592 10.5625 7.59092 10.5295C7.59592 10.5185 7.60493 10.5175 7.60493 10.5175C7.60893 10.5015 7.61494 10.4805 7.59395 10.4915L7.60093 10.5025C7.57793 10.5185 7.54791 10.5815 7.53791 10.5575C7.53091 10.5965 7.54793 10.5815 7.56593 10.5585C7.52093 10.6085 7.51992 10.6485 7.47892 10.7035C7.48992 10.6965 7.50593 10.6945 7.50193 10.7035C7.44493 10.7845 7.50292 10.7515 7.47792 10.8135C7.44492 10.8395 7.44394 10.7825 7.42994 10.8495C7.40194 10.8815 7.39792 10.8435 7.39592 10.8245C7.39092 10.8895 7.33493 10.9215 7.31593 10.9525L7.32093 10.9195C7.31793 10.9395 7.31094 10.9535 7.30494 10.9685L7.33394 10.9615C7.32194 10.9765 7.31593 10.9915 7.30693 10.9875C7.31293 11.0115 7.34892 10.9905 7.35292 11.0335C7.33192 11.0515 7.33292 11.1075 7.30092 11.1035C7.34292 11.0355 7.26794 11.0985 7.29094 11.0355C7.28894 11.0485 7.28192 11.0635 7.27092 11.0785C7.27092 11.0785 7.26592 11.0735 7.26692 11.0685C7.21192 11.1275 7.28593 11.1145 7.25593 11.1875C7.24293 11.1715 7.21793 11.1915 7.21693 11.2045C7.22893 11.1755 7.24993 11.2015 7.25193 11.2335C7.21993 11.2745 7.24092 11.2875 7.22892 11.3115L7.24693 11.2865C7.25893 11.3025 7.24794 11.3245 7.23994 11.3595C7.22594 11.3575 7.24292 11.3265 7.23292 11.3365C7.24692 11.3835 7.16992 11.4055 7.17192 11.4645C7.15192 11.4845 7.13992 11.4555 7.12492 11.4735C7.12592 11.5385 7.07994 11.5275 7.07594 11.5945C7.10494 11.5845 7.09992 11.5805 7.10691 11.6295L7.12693 11.5255L7.13694 11.6005C7.14794 11.5705 7.14593 11.5325 7.15593 11.5165C7.16293 11.5535 7.15893 11.5485 7.18293 11.5405C7.13493 11.5695 7.17392 11.6275 7.13392 11.6665L7.07893 11.6455C7.02793 11.7085 7.06693 11.7835 7.02293 11.8715L7.04194 11.8445C7.05994 11.8635 7.02693 11.9035 7.02693 11.9365C7.00893 11.9285 6.99593 11.9445 6.97993 11.9545C6.99393 11.9565 6.95794 12.0235 6.99394 12.0425L6.95793 12.0775C6.92693 12.1515 6.98894 12.1785 6.96394 12.2505C6.94894 12.2235 6.92694 12.2535 6.92494 12.2005C6.91794 12.2255 6.90892 12.2465 6.92192 12.2495C6.90692 12.2615 6.93192 12.3245 6.90892 12.3425C6.91492 12.3545 6.93492 12.3625 6.92692 12.3905C6.92192 12.3925 6.91792 12.3885 6.91792 12.3885C6.92692 12.3905 6.92092 12.4345 6.94792 12.4155C6.86892 12.4775 6.90894 12.6285 6.84294 12.6845C6.83694 12.7505 6.83092 12.8165 6.82692 12.8555C6.82192 12.8515 6.81693 12.8535 6.82093 12.8445C6.79093 12.9095 6.86992 12.8955 6.83592 12.9695C6.79792 13.0035 6.82592 12.9255 6.80992 12.9485C6.74392 12.9485 6.80392 13.0435 6.75792 13.0895L6.75593 13.0765C6.72793 13.1135 6.76493 13.1775 6.75093 13.2415L6.74092 13.2395C6.76792 13.2885 6.76692 13.3745 6.76692 13.4385C6.74492 13.4155 6.75793 13.4085 6.72993 13.4165C6.72993 13.4455 6.77192 13.4135 6.77192 13.4705C6.75592 13.4865 6.73892 13.5255 6.71092 13.5275L6.71592 13.4745C6.67692 13.4965 6.70793 13.5435 6.69893 13.5705L6.68394 13.5645C6.67894 13.6465 6.71693 13.6525 6.70393 13.7385L6.71693 13.7315C6.74993 13.7835 6.68993 13.7685 6.71293 13.8195L6.67192 13.8295C6.67792 13.8625 6.69594 13.9445 6.69694 14.0015C6.67194 13.9665 6.66494 13.8985 6.65294 13.8555C6.64894 13.8865 6.64292 13.9615 6.65992 13.9805C6.65792 13.9675 6.64994 13.9505 6.65794 13.9385C6.68394 13.9805 6.69292 14.0325 6.68492 14.0945C6.60992 14.0745 6.64592 14.2535 6.58192 14.2905C6.59692 14.4035 6.54292 14.5055 6.52992 14.6325C6.59492 14.5955 6.52693 14.6695 6.58793 14.6705C6.58793 14.7005 6.58094 14.7135 6.58094 14.7135L6.53193 14.7975C6.51093 14.8165 6.52292 14.7675 6.50892 14.7685C6.49492 14.8325 6.47892 14.7915 6.45692 14.8315C6.47992 14.8255 6.48493 14.8585 6.47093 14.8945L6.50593 14.8465C6.52493 14.9415 6.44392 14.9165 6.46092 15.0115L6.44694 14.9805C6.44994 15.0285 6.41994 15.1505 6.45894 15.2045C6.44994 15.2115 6.43192 15.2195 6.43092 15.1985C6.40392 15.3065 6.43692 15.4535 6.38792 15.5325L6.37492 15.5215C6.37492 15.5425 6.39492 15.5625 6.37492 15.5855C6.36892 15.5825 6.36193 15.5735 6.35893 15.5835C6.36193 15.5955 6.37292 15.6435 6.35792 15.6685L6.34694 15.6415C6.30094 15.7425 6.34794 15.8135 6.33394 15.9045C6.29094 15.8925 6.25394 15.9705 6.23494 16.0095L6.22892 16.0065C6.18892 16.1255 6.20494 16.2225 6.17994 16.3385C6.11094 16.3915 6.07992 16.5645 6.00792 16.6615C6.02192 16.6475 6.03892 16.6775 6.03492 16.6985C6.01592 16.7205 6.03394 16.7805 5.99894 16.7605L6.00392 16.7515C5.95892 16.7555 5.94794 16.8115 5.92994 16.8505L5.97493 16.8785C5.85493 16.9495 5.87192 17.1655 5.77992 17.1895C5.77892 17.2195 5.76194 17.2505 5.76094 17.2805L5.73692 17.2665C5.69392 17.3305 5.67292 17.3625 5.63392 17.4495L5.62593 17.4225C5.59893 17.4685 5.66192 17.5215 5.63792 17.5655L5.59395 17.5565C5.54495 17.6365 5.46692 17.6995 5.44792 17.7965C5.44392 17.7915 5.43494 17.7825 5.44194 17.7695C5.41594 17.8055 5.32293 17.8945 5.37993 17.9135C5.34793 17.8935 5.32293 17.9915 5.30793 18.0435L5.28993 18.0205C5.29593 18.0765 5.30093 18.0825 5.27293 18.1365C5.26193 18.1455 5.24794 18.1335 5.26494 18.1225C5.22494 18.1515 5.26394 18.1675 5.21794 18.2045L5.21693 18.1765C5.18593 18.2145 5.19593 18.2165 5.19593 18.2505C5.18593 18.2815 5.13494 18.3205 5.11094 18.3105C5.11894 18.3255 5.11992 18.3595 5.09492 18.3775C5.08492 18.3745 5.08693 18.3625 5.08793 18.3565C5.02093 18.4075 5.03492 18.4705 4.97792 18.4955C4.96992 18.4905 4.96394 18.4905 4.95894 18.4925C5.00094 18.4435 5.03492 18.4045 5.03392 18.4095C5.01392 18.3935 4.97693 18.4305 4.97593 18.3765C4.96393 18.4205 4.95092 18.5025 4.90892 18.5335L4.89793 18.5325L4.89894 18.5265C4.88994 18.5335 4.88494 18.5435 4.88194 18.5535C4.86794 18.5635 4.85892 18.5685 4.84892 18.5805C4.82892 18.5715 4.79993 18.6165 4.78193 18.6355C4.80393 18.6525 4.77794 18.6745 4.81694 18.6665C4.81694 18.6665 4.81793 18.6605 4.82893 18.6475C4.82893 18.6475 4.83194 18.6425 4.83394 18.6375L4.83494 18.6405C4.84694 18.6265 4.86093 18.6095 4.87693 18.5915C4.87493 18.6165 4.86793 18.6405 4.83693 18.6515C4.84093 18.6745 4.84393 18.6975 4.84593 18.7085C4.79293 18.7085 4.72994 18.7445 4.70594 18.7355C4.66494 18.8055 4.58693 18.8795 4.58693 18.9505C4.57593 18.9715 4.55794 18.9585 4.54594 18.9585C4.55194 18.9455 4.56294 18.9355 4.56294 18.9245C4.53994 18.9655 4.47093 19.0215 4.48893 19.0565C4.43693 19.0845 4.48793 19.0095 4.43693 19.0685V19.0525C4.28693 19.1155 4.31394 19.2905 4.13594 19.3485C4.14794 19.3445 4.15392 19.3415 4.15992 19.3455C3.98792 19.4425 3.86594 19.6245 3.67494 19.6905C3.62394 19.7135 3.63292 19.7365 3.61592 19.7705L3.58894 19.7525L3.55992 19.8125C3.50492 19.8785 3.40192 19.8265 3.34092 19.9225L3.36293 19.9325C3.32993 19.9505 3.26992 20.0045 3.26292 19.9805C3.26192 19.9855 3.26292 20.0045 3.24492 20.0025L3.23594 19.9895L3.17094 20.0575C3.10394 20.0825 3.14894 19.9975 3.05894 20.0455C3.02894 20.0695 2.98692 20.1395 3.00392 20.1415C3.01792 20.1345 3.04292 20.1305 3.05092 20.1445L3.02494 20.1695C3.04194 20.2135 3.03994 20.2695 3.13194 20.2545L3.17094 20.1995L3.19893 20.2095L3.15492 20.2365C3.19092 20.2405 3.19794 20.2145 3.20894 20.1935C3.21894 20.2015 3.23094 20.2045 3.24394 20.2025L3.27394 20.1345C3.28994 20.1465 3.26894 20.1795 3.30894 20.1675C3.32294 20.1355 3.26492 20.1455 3.29792 20.1105C3.33392 20.1145 3.33494 20.1335 3.35594 20.1005C3.36594 20.1085 3.36393 20.1185 3.35493 20.1295C3.37493 20.1025 3.42094 20.0825 3.42094 20.0525C3.45994 20.0585 3.50394 19.9915 3.52494 20.0305C3.52794 20.0165 3.55193 19.9725 3.57393 19.9555C3.55993 20.0275 3.66394 19.9015 3.68394 19.9555C3.68994 19.8965 3.78393 19.8585 3.82393 19.7985C3.82293 19.8035 3.82192 19.8145 3.81492 19.8155C3.84792 19.7965 3.86493 19.8015 3.88993 19.7945C3.87093 19.7595 3.91293 19.7185 3.92393 19.6805C3.98393 19.6835 3.92893 19.7335 3.96193 19.7545C3.94193 19.7305 4.00792 19.6815 3.97892 19.6695C4.02092 19.6655 4.00993 19.6595 4.04393 19.6735C4.01893 19.6305 4.06492 19.6465 4.06892 19.6045C4.12392 19.5915 4.10793 19.6325 4.14293 19.5855C4.16893 19.5815 4.14094 19.6265 4.14094 19.6265ZM5.04292 18.6355C5.03692 18.6455 5.03093 18.6525 5.02693 18.6585C5.02993 18.6535 5.03492 18.6475 5.04292 18.6355ZM5.11393 18.5495L5.08192 18.5865C5.07192 18.5835 5.06693 18.5735 5.07493 18.5655C5.07593 18.5735 5.09693 18.5565 5.11393 18.5495ZM4.81593 18.6005C4.82493 18.5855 4.83294 18.5845 4.83894 18.5865C4.83494 18.5915 4.82993 18.5985 4.82093 18.6105L4.82194 18.6145C4.81894 18.6105 4.81593 18.6005 4.81593 18.6005Z" fill="#010101"/>
<path d="M4.81653 18.6494L4.8125 18.6575L4.82234 18.6624L4.82637 18.6543L4.81653 18.6494Z" fill="#010101"/>
<path d="M8.30591 9.42847L8.30493 9.42947L8.31091 9.42847H8.30591Z" fill="#010101"/>
<path d="M6.01089 17.2855L6.00488 17.2825V17.2945L6.01089 17.2855Z" fill="#010101"/>
<path d="M8.73993 8.98955C8.73993 8.98955 8.74592 8.98955 8.75092 8.98755C8.75092 8.98755 8.74493 8.98755 8.73993 8.98955Z" fill="#010101"/>
<path d="M8.90393 8.78352L8.93393 8.75952C8.91793 8.77352 8.90893 8.77952 8.90393 8.78352Z" fill="#010101"/>
<path d="M9.03891 8.63246C9.03591 8.62846 9.03192 8.62146 9.03192 8.62146L9.03891 8.63246Z" fill="#010101"/>
<path d="M7.40891 11.3665L7.40693 11.3745C7.40493 11.3935 7.40791 11.3815 7.40891 11.3665Z" fill="#010101"/>
<path d="M7.75494 10.4814C7.75394 10.4944 7.75295 10.5064 7.75195 10.5144C7.76195 10.5004 7.76894 10.4894 7.75494 10.4814Z" fill="#010101"/>
<path d="M7.12491 12.3785H7.12393L7.12292 12.3845L7.12491 12.3785Z" fill="#010101"/>
<path d="M7.72992 10.5535C7.74292 10.5415 7.74892 10.5285 7.75192 10.5145C7.74392 10.5255 7.73292 10.5385 7.72992 10.5535Z" fill="#010101"/>
<path d="M9.5979 7.95848L9.60489 7.95148L9.6019 7.94849L9.5979 7.95848Z" fill="#010101"/>
<path d="M9.61594 7.91553L9.60693 7.93753C9.61193 7.93153 9.61894 7.92453 9.61594 7.91553Z" fill="#010101"/>
<path d="M9.36894 8.2225C9.38294 8.2085 9.41694 8.1985 9.42894 8.1735L9.42394 8.1665C9.42794 8.1855 9.36694 8.1975 9.36894 8.2225Z" fill="#010101"/>
<path d="M9.05793 8.40845L9.10691 8.36045C9.09091 8.36345 9.06992 8.36645 9.08692 8.34045C9.00792 8.38745 9.11693 8.34145 9.05793 8.40845Z" fill="#010101"/>
<path d="M8.91489 8.56555C8.93389 8.53355 8.9019 8.55655 8.8989 8.55055C8.8919 8.57555 8.88989 8.58155 8.91489 8.56555Z" fill="#010101"/>
<path d="M8.02396 9.81644L8.00394 9.79944C7.99194 9.82544 8.01196 9.80444 8.02396 9.81644Z" fill="#010101"/>
<path d="M7.98291 10.1345L8.00992 10.1195L7.99692 10.0955L7.98291 10.1345Z" fill="#010101"/>
<path d="M7.73688 10.1915L7.74088 10.1785L7.72388 10.2245L7.73688 10.1915Z" fill="#010101"/>
<path d="M6.82093 12.6165L6.85392 12.6145C6.85192 12.5945 6.81793 12.5835 6.82093 12.6165Z" fill="#010101"/>
<path d="M6.68494 13.7245C6.66794 13.7345 6.65397 13.7645 6.66697 13.7855C6.67197 13.7615 6.68794 13.7375 6.68494 13.7245Z" fill="#010101"/>
<path d="M5.91089 16.9105L5.90988 16.8865L5.90088 16.9275L5.91089 16.9105Z" fill="#010101"/>
<path d="M15.4059 1.27354C14.6159 0.0835356 12.9359 -0.376465 11.2659 0.343535C9.07592 1.27354 7.76591 5.10354 9.15591 6.97354C9.26591 7.11354 9.39591 7.24354 9.53591 7.36354C9.34591 7.47354 9.17591 7.64354 9.00591 7.77354C8.76591 7.96354 8.86591 8.15353 9.18591 8.26353L9.9259 8.51353C10.2059 8.61353 10.3659 8.43353 10.3059 8.17353C10.2659 8.02353 10.2559 7.88354 10.2359 7.75354C10.4659 7.84354 10.7059 7.88353 10.9459 7.89353C12.4859 8.20354 14.5859 6.72353 15.2959 5.62353C16.1559 4.30353 16.3959 2.49354 15.4059 1.27354ZM12.9259 1.29354C12.7359 1.47354 12.5059 1.57353 12.2359 1.56353C12.2159 1.56353 12.1959 1.53353 12.2059 1.51353C12.3459 1.25353 12.5759 1.13353 12.8659 1.15353C12.9359 1.16353 12.9759 1.24354 12.9259 1.29354ZM12.9959 0.683535C12.4259 0.913535 11.8459 1.06353 11.3159 1.39353C11.0459 1.56353 10.7859 1.77353 10.5559 2.01353C10.4059 2.17353 10.3659 2.28353 10.1459 2.33353C10.1259 2.34353 10.1159 2.32353 10.1159 2.31353C10.0759 1.80353 10.8459 1.32353 11.2359 1.07353C11.7559 0.753535 12.3759 0.513536 12.9959 0.613536C13.0459 0.613536 13.0259 0.673535 12.9959 0.683535Z" fill="#D73B2A"/>
</g>
<defs>
<clipPath id="clip0_2573_11582">
<rect width="20" height="20" fill="white"/>
</clipPath>
</defs>
</svg>
